<svg xmlns="http://www.w3.org/2000/svg" xmlns:xlink="http://www.w3.org/1999/xlink" width="209" height="37" viewBox="0 0 209 37">
  <defs>
    <clipPath id="clip-path">
      <rect id="Rectangle_24851" data-name="Rectangle 24851" width="209" height="37"/>
    </clipPath>
  </defs>
  <g id="Group_346480" data-name="Group 346480" transform="translate(0 0)">
    <g id="Group_346479" data-name="Group 346479" transform="translate(0 0)" clip-path="url(#clip-path)">
      <path id="Path_341480" data-name="Path 341480" d="M34.4,36.987c-4.738-.012-9.576.209-14.375-.806a17.619,17.619,0,0,1-10.058-5.99C6.929,26.65,3.755,23.222.611,19.77A1.57,1.57,0,0,1,.6,17.3c3.235-3.512,6.546-6.964,9.61-10.621C14.026,2.116,19.053.51,24.724.154,32.3-.322,39.83.422,47.377.8c.872.044,1.465.377,1.454,1.308a1.352,1.352,0,0,1-1.456,1.524c-4.585,0-8.089,2.232-11.218,5.292-2.849,2.787-5.519,5.736-8.153,8.72-.39.442-.839.83-.226,1.469,3.592,3.744,6.727,7.927,10.862,11.15A14.9,14.9,0,0,0,47.15,33.5c.963.053,1.721.214,1.675,1.387-.043,1.093-.757,1.4-1.721,1.445-4.2.209-8.4.433-12.7.658M12.7,20.069c2.839,3.094,5.493,6.034,8.2,8.922a18.891,18.891,0,0,0,3.822,3.1,8.654,8.654,0,0,0,5.565,1.525c-4.282-3.388-7.818-7.482-11.362-11.545a5.734,5.734,0,0,0-6.23-2m.081-3.213a5.487,5.487,0,0,0,6.159-2.028,101.4,101.4,0,0,1,9.584-10.2c.511-.466,1.031-.923,1.813-1.622a11.472,11.472,0,0,0-6.389,2.4c-4.279,3.2-7.41,7.505-11.168,11.448M38.264,3.087c-8.228,1.5-12.183,8.358-17.776,13.74,2.65.389,4.6.3,6.046-1.806a42.463,42.463,0,0,1,3.253-3.683,81.94,81.94,0,0,1,8.478-8.251m-.316,30.38A113.339,113.339,0,0,1,25.781,21.028c-1.356-1.535-3.14-1.287-5.167-1,1.319,1.456,2.44,2.717,3.586,3.955,2.478,2.678,4.85,5.487,7.946,7.5,1.6,1.037,3.2,2.254,5.8,1.986M21.817,3.658c-.718.077-.926.087-1.13.123a15.149,15.149,0,0,0-8.267,4.726C9.8,11.169,7.333,13.959,4.6,17.077c1.984-.146,3.643.5,5.01-.9,3.975-4.057,7.306-8.722,12.208-12.522m-.182,29.552c-4.412-3.626-7.82-7.7-11.371-11.629C8.652,19.8,6.853,19.609,4.522,20.037c3.431,3.53,6.413,7.2,10.012,10.274a11.063,11.063,0,0,0,7.1,2.9" transform="translate(0 0)"/>
      <path id="Path_341481" data-name="Path 341481" d="M523.212,31.14q-2.357,6.7-4.711,13.4a2.516,2.516,0,0,1-3.493,1.822c-.781-.227-.822-.918-1.013-1.486-1.2-3.553-2.36-7.116-3.536-10.676-.144-.434-.295-.865-.522-1.529a1.927,1.927,0,0,0-.34,1.457c-.01,3.654-.069,7.31.027,10.962.038,1.456-.775,1.32-1.715,1.3s-1.834.281-1.808-1.333c.1-6.248.054-12.5.031-18.748,0-.766.129-1.081,1.025-1.107,3.943-.115,3.938-.15,5.157,3.538,1.3,3.942,2.614,7.881,4.061,12.24,1.191-3.556,2.244-6.7,3.3-9.842.52-1.552,1.08-3.092,1.546-4.66a1.594,1.594,0,0,1,1.734-1.265c4.006-.128,4.005-.15,4.005,3.88,0,5.3-.067,10.594.041,15.888.031,1.51-.707,1.439-1.732,1.416-.98-.022-1.819.163-1.78-1.4.114-4.6.041-9.207.041-13.811l-.315-.046" transform="translate(-344.3 -17.163)"/>
      <path id="Path_341482" data-name="Path 341482" d="M337.85,46.5c-1.1,0-2.044-.03-2.987.01-.755.031-1-.5-1.259-1.016-.883-1.744-1.871-3.449-2.588-5.259a2.847,2.847,0,0,0-3.338-2.082c-2.323.2-2.053-.218-2.07,2.04q-.02,2.54,0,5.079c.011,1.713-1.291.941-2.083,1.077-.808.139-1.382.06-1.368-1.086.062-5.185-.008-10.37.043-15.555.027-2.78,1.727-4.349,4.554-4.372,1.49-.012,2.98-.024,4.469,0a6.561,6.561,0,0,1,6.371,4.8,6.464,6.464,0,0,1-3.028,7.23c-.9.508-1.025.833-.525,1.719,1.3,2.3,2.481,4.663,3.708,7a3.489,3.489,0,0,1,.1.412m-9.2-11.116a21.905,21.905,0,0,0,2.7-.02,3.334,3.334,0,0,0,3.007-3.008,3.575,3.575,0,0,0-2.229-3.493,6,6,0,0,0-2.506-.3c-4.006-.006-4.006,0-4.006,4,0,2.942,0,2.942,3.033,2.817" transform="translate(-219.162 -17.271)"/>
      <path id="Path_341483" data-name="Path 341483" d="M242.578,46.252c2.689-6.92,5.335-13.685,7.935-20.468.405-1.058,1.22-.53,1.868-.669,1.586-.34,2.3.394,2.867,1.861,2.374,6.1,4.875,12.143,7.382,18.187.375.9.332,1.146-.722,1.149-2.534.008-2.534.056-3.452-2.264-1.158-2.926-1.158-2.926-4.33-2.926-1.542,0-3.088.061-4.625-.023a1.334,1.334,0,0,0-1.6,1.121,7.709,7.709,0,0,1-.409,1.03c-1.357,3.262-.433,3.107-4.911,3m6.772-8.347h6.419l-3.237-8.076-3.182,8.076" transform="translate(-165.026 -17.075)"/>
      <path id="Path_341484" data-name="Path 341484" d="M610.733,46.088a1.746,1.746,0,0,1-.4.176c-3.2.182-3.306.217-4.324-2.79-.607-1.795-1.4-2.7-3.472-2.415a30.7,30.7,0,0,1-5.265.024c-.872-.032-1.386.2-1.617,1.083a16.718,16.718,0,0,1-.753,1.915c-.922,2.315-.952,2.284-3.5,2.216-.988-.027-1.014-.288-.7-1.1,1.878-4.769,3.71-9.555,5.558-14.336.629-1.627,1.292-3.243,1.871-4.888.231-.657.56-1.025,1.26-.861,1,.236,2.429-.713,3,.639,2.839,6.753,5.571,13.55,8.341,20.331M600.274,29.769c-1.055,2.651-1.986,5-2.931,7.353-.254.63-.064.848.607.836,1.49-.028,2.984-.055,4.472.008,1.024.044,1-.317.676-1.1-.934-2.243-1.8-4.513-2.824-7.1" transform="translate(-401.733 -17.06)"/>
      <path id="Path_341485" data-name="Path 341485" d="M446.37,32.862c0,1.957.025,3.914-.005,5.871a8.312,8.312,0,0,1-16.61.309c-.142-4.279-.019-8.567-.064-12.851-.009-.846.371-.905,1.055-.922,2.459-.06,2.459-.084,2.46,2.35,0,3.7-.041,7.405.022,11.107a4.582,4.582,0,0,0,3.916,4.687,4.85,4.85,0,0,0,5.484-3.314,5.806,5.806,0,0,0,.2-1.881c.006-3.755.1-7.514-.038-11.264-.059-1.633.658-1.694,1.956-1.794,1.6-.123,1.692.614,1.647,1.832-.072,1.955-.019,3.913-.019,5.87" transform="translate(-292.314 -17.151)"/>
      <path id="Path_341486" data-name="Path 341486" d="M180.741,46.043a10.865,10.865,0,1,1,6.751-19.561c.462.36,1.8.52.995,1.676-1.161,1.663-1.836,1.841-3.079,1.026a7.358,7.358,0,0,0-8.395-.275,7.13,7.13,0,0,0-3.495,7.741,7.138,7.138,0,0,0,5.465,5.979,7.512,7.512,0,0,0,6.642-1.3c.708-.506,2.924.4,3.047,1.241.059.407-.371.6-.632.823a10.329,10.329,0,0,1-7.3,2.648" transform="translate(-115.691 -16.584)"/>
      <path id="Path_341487" data-name="Path 341487" d="M393.537,35.962c0-3.072.093-6.148-.038-9.214-.072-1.679.93-1.4,1.931-1.445s1.636-.051,1.614,1.349c-.093,6.037-.031,12.075-.052,18.113,0,.579.3,1.4-.576,1.615a4.949,4.949,0,0,1-2.67-.044c-.426-.138-.2-.761-.2-1.159-.017-3.072-.009-6.144-.01-9.216" transform="translate(-267.689 -17.251)"/>
    </g>
  </g>
</svg>
