<svg xmlns="http://www.w3.org/2000/svg" width="168.155" height="34.472" viewBox="0 0 168.155 34.472">
  <g id="Group_346475" data-name="Group 346475" transform="translate(0 0)">
    <g id="Group_346476" data-name="Group 346476" transform="translate(0 0)">
      <path id="Path_341465" data-name="Path 341465" d="M22.333,19.222a.88.88,0,0,0,.457.214,8.262,8.262,0,0,1,3.057,1.788,6.673,6.673,0,0,1,2,3.753,7.45,7.45,0,0,1,.106,1.332q-.006,3.748,0,7.5c0,.661-.007.667-.677.667q-2.99,0-5.98,0c-.68,0-.684,0-.685-.707,0-1.606.014-3.213-.006-4.818a12.742,12.742,0,0,0-.263-2.658,4.7,4.7,0,0,0-2.414-3.362,6.907,6.907,0,0,0-2.252-.684,12.749,12.749,0,0,0-1.825-.1q-1.919,0-3.838,0c-.493,0-.532-.039-.533-.539q-.005-2.409,0-4.819c0-.487.046-.529.544-.53,2.142,0,4.284.006,6.427-.005a4.644,4.644,0,0,0,3.535-1.536,4.716,4.716,0,0,0,1.131-2.148,6.069,6.069,0,0,0-.03-2.96A4.507,4.507,0,0,0,17.1,6.266a10.235,10.235,0,0,0-1.513-.087q-3.972.006-7.944,0c-.67,0-.673,0-.673.67q0,9.882,0,19.765,0,.446,0,.892c0,.764-.02.786-.764.787q-2.789,0-5.579,0c-.074,0-.149,0-.223,0-.331-.023-.384-.073-.4-.4-.008-.133,0-.268,0-.4Q0,14.152,0,.812C0,0,0,0,.808,0,6.387,0,11.965.012,17.544,0a11.873,11.873,0,0,1,7.61,2.623A9.2,9.2,0,0,1,28.846,9.2a9.306,9.306,0,0,1-4.667,9.074,14.178,14.178,0,0,1-1.523.741.58.58,0,0,0-.322.2" transform="translate(0 0)"/>
      <path id="Path_341466" data-name="Path 341466" d="M1993.822,14.207q0-6.694,0-13.388c0-.75,0-.752.73-.752h5.8c.7,0,.7,0,.7.693q0,10.4,0,20.8c0,.178,0,.357.01.535a.271.271,0,0,0,.281.284c.133.01.267.012.4.012q2.32,0,4.641,0a4.974,4.974,0,0,0,4.91-4.062,5.155,5.155,0,0,0-2.419-5.507,4.324,4.324,0,0,0-2.171-.592c-.907,0-1.815,0-2.722,0-.464,0-.513-.05-.514-.514q-.006-2.477,0-4.953c0-.46.05-.507.519-.508,1.517,0,3.036-.049,4.551.013a10.065,10.065,0,0,1,6.125,2.392,11.178,11.178,0,0,1,3.986,7.256,9.775,9.775,0,0,1-1.388,6.843,11.534,11.534,0,0,1-4.118,3.874,12.917,12.917,0,0,1-5.01,1.643,15.625,15.625,0,0,1-1.736.1q-5.935.012-11.87,0c-.706,0-.707,0-.707-.727q0-6.716,0-13.432" transform="translate(-1905.231 -0.064)"/>
      <path id="Path_341467" data-name="Path 341467" d="M3286.229,16.575a1.32,1.32,0,0,0,.524.218,9.068,9.068,0,0,1,2.97,1.6,7.443,7.443,0,0,1,2.534,4.3,13.734,13.734,0,0,1,.252,2.437c.036.891.013,1.785.008,2.678,0,.451-.054.5-.51.549a4.773,4.773,0,0,1-.49.02q-2.723,0-5.446,0h-.134c-.587-.011-.644-.063-.646-.636,0-.893.009-1.785,0-2.678a7.11,7.11,0,0,0-.32-2.109,4.573,4.573,0,0,0-2.8-2.93,6.61,6.61,0,0,0-2.352-.465c-.788-.014-1.577-.008-2.365,0-.51,0-.553.045-.553.568q0,3.682,0,7.365c0,.84-.037.886-.873.889-1.919.006-3.839,0-5.758,0a2.342,2.342,0,0,1-.312-.018.292.292,0,0,1-.276-.3c-.009-.134-.012-.267-.012-.4q0-13.435,0-26.87c0-.71,0-.713.729-.713h5.847c.617,0,.655.038.655.662q0,6,0,12.007c0,.149-.006.3.006.446.023.3.077.354.383.373.193.012.387.005.58.005.863,0,1.726.016,2.589-.007a4.378,4.378,0,0,0,2.94-1.113,4.885,4.885,0,0,0,1.36-2.318,10.224,10.224,0,0,0,.366-3.045c-.014-.862-.048-.832.822-.832h5.668c.642,0,.648.01.652.646a16.92,16.92,0,0,1-.375,3.988,7.636,7.636,0,0,1-.761,2.042,6.967,6.967,0,0,1-3.2,2.876c-.444.211-.9.394-1.36.564-.118.043-.271.043-.339.21" transform="translate(-3124.375 -0.067)"/>
      <path id="Path_341468" data-name="Path 341468" d="M714.014,140.357H720.8c.672,0,.679.007.679.664,0,1.7-.006,3.39.005,5.085a1.816,1.816,0,0,1-.3,1.046c-1.076,1.659-2.137,3.328-3.2,4.993-.313.488-.635.971-.939,1.464a.624.624,0,0,1-.586.324c-2.008-.005-4.016,0-6.025,0a1.1,1.1,0,0,1-.178-.009c-.208-.034-.244-.1-.141-.31.073-.146.164-.283.248-.423q1.92-3.218,3.838-6.437c.087-.147.27-.294.17-.476s-.323-.109-.493-.109c-1.7,0-3.392-.016-5.088,0a5.113,5.113,0,0,0-1.026,10.1,6.887,6.887,0,0,0,1.507.145q5.712,0,11.425,0c.776,0,.791.015.792.8q0,2.208,0,4.416c0,.134,0,.268-.011.4a.288.288,0,0,1-.274.3,6.2,6.2,0,0,1-.666.053c-4.21,0-8.42.014-12.63,0a10.964,10.964,0,0,1-5.909-1.605,11.054,11.054,0,0,1-2.631-16.584,10.548,10.548,0,0,1,7.03-3.756,13.67,13.67,0,0,1,1.6-.077h6.025" transform="translate(-665.748 -134.091)"/>
      <path id="Path_341469" data-name="Path 341469" d="M1345.921,138.479h6.516c.119,0,.238,0,.357,0,.515.008.554.042.555.566,0,1.814,0,3.628,0,5.442a1.261,1.261,0,0,1-.206.713q-2.062,3.209-4.109,6.427a.836.836,0,0,1-.8.432c-1.919-.014-3.838-.006-5.757-.006-.045,0-.089,0-.134,0-.408-.018-.45-.089-.234-.448q1.929-3.212,3.864-6.421c.107-.178.216-.356.313-.54.073-.138.016-.234-.135-.256a2.506,2.506,0,0,0-.356-.016c-1.666,0-3.332-.008-5,0a5.112,5.112,0,0,0-2.1,9.762,5.022,5.022,0,0,0,2.043.4h11.782c.164,0,.327,0,.491.007a.3.3,0,0,1,.33.336c0,.1.006.208.006.312q0,2.342,0,4.684c0,.1,0,.208-.007.312a.289.289,0,0,1-.3.315c-.119.007-.238.01-.357.01-4.344,0-8.688.021-13.031-.007a11.011,11.011,0,0,1-1.316-21.946,12.486,12.486,0,0,1,1.513-.074h6.069" transform="translate(-1269.604 -132.297)"/>
      <path id="Path_341470" data-name="Path 341470" d="M2626.105,132.051a15.253,15.253,0,0,1,5.688.94,10.789,10.789,0,0,1,7.368,10.068,11.825,11.825,0,0,1-.544,4.132,10.757,10.757,0,0,1-4.695,5.864,13.624,13.624,0,0,1-5.876,1.951,15.988,15.988,0,0,1-6.531-.558,12.07,12.07,0,0,1-6.8-5.048,10.5,10.5,0,0,1-1.645-5.076,11.937,11.937,0,0,1,.6-4.7,10.351,10.351,0,0,1,4.348-5.483,13.933,13.933,0,0,1,6-2.006,20.35,20.35,0,0,1,2.093-.088m-5.9,11.512a5.861,5.861,0,0,0,5.827,5.907,5.89,5.89,0,1,0,.043-11.78,5.866,5.866,0,0,0-5.87,5.873" transform="translate(-2496.939 -126.153)"/>
    </g>
  </g>
</svg>
