<svg xmlns="http://www.w3.org/2000/svg" xmlns:xlink="http://www.w3.org/1999/xlink" width="231.425" height="27.888" viewBox="0 0 231.425 27.888">
  <defs>
    <clipPath id="clip-path">
      <rect id="Rectangle_24850" data-name="Rectangle 24850" width="231.425" height="27.888" transform="translate(0 0)" fill="none"/>
    </clipPath>
  </defs>
  <g id="Group_346478" data-name="Group 346478" transform="translate(0 0)">
    <g id="Group_346477" data-name="Group 346477" transform="translate(0 0)" clip-path="url(#clip-path)">
      <path id="Path_341471" data-name="Path 341471" d="M347.8,3.634l-2.463-.278v-1.9h8.721V3.365l-2.155.259v11h12.652V3.648l-2.518-.293V1.462h8.761c.029.577.061,1.176.1,1.879l-2.25.281v22.77l2.1.25v1.882h-8.7c-.028-.6-.055-1.149-.088-1.848l2.581-.245v-9.5H351.948V26.4l2.233.263v1.854H345.47c-.037-.582-.071-1.129-.115-1.817l2.44-.287Z" transform="translate(-225.498 -0.953)"/>
      <path id="Path_341472" data-name="Path 341472" d="M619.749,26.443V28.5h-8.723V26.6l2.194-.233-6.036-8.9-5.889,8.9,2.729.253v1.862h-8.7v-2c2.68.781,3.468-1.3,4.582-2.928,1.693-2.48,3.451-4.918,5.066-7.446A2.171,2.171,0,0,0,605,14.2c-2.059-3.274-4.154-6.534-6.429-9.659-.562-.772-1.833-1.028-3.081-1.68V1.412h8.676V3.339l-1.945.3,5.463,8.154,5.795-8.1-1.882-.437V1.423h8.572v1.81c-.119.067-.174.127-.218.12-2.747-.468-4.114,1.177-5.374,3.274-1.365,2.272-2.942,4.422-4.513,6.562a1.682,1.682,0,0,0,.047,2.286c2.095,3.043,4.167,6.1,6.15,9.221.807,1.269,1.658,2.2,3.494,1.746" transform="translate(-388.738 -0.922)"/>
      <path id="Path_341473" data-name="Path 341473" d="M14.791,4.07c.741-.861.124-2.986,2.437-2.223V8.687c-.887.406-1.458.261-1.991-.746-1.647-3.113-4.5-4.189-7.816-4.123A3.9,3.9,0,0,0,3.477,7.078c-.464,2.4.225,4.113,2.307,5.054a38.986,38.986,0,0,0,4.423,1.441c1.211.38,2.446.7,3.634,1.134,3.777,1.4,5.268,3.564,4.982,7.138a7.589,7.589,0,0,1-6.277,6.893,11.3,11.3,0,0,1-9.642-2.7C1.747,26.8,2.866,29.522.185,28.88V21.135a10.138,10.138,0,0,1,2.246,1.481,9.738,9.738,0,0,0,9,3.777,4.193,4.193,0,0,0,3.891-3.375c.394-2.273-.314-4.052-2.284-4.919-1.731-.761-3.6-1.215-5.4-1.81-.986-.325-2-.594-2.945-1.006C.991,13.673-.464,11.221.128,7.7a7.436,7.436,0,0,1,7.123-5.99c2.906-.18,4.2.218,7.54,2.363" transform="translate(0 -1.089)"/>
      <path id="Path_341474" data-name="Path 341474" d="M284.494,8.458c-1.036.421-1.661.094-2.2-.907a8.383,8.383,0,0,0-6.079-4.459c-4.264-.762-7.524,1.106-9.008,5.213a16.873,16.873,0,0,0-.008,11.72c1.321,3.664,4.01,5.594,7.522,5.6,3.492.005,6.07-1.957,7.445-5.679a13.52,13.52,0,0,0,.416-1.32c.486-1.892.481-1.894,2.558-1.572a10.792,10.792,0,0,1-6.8,10.25,11.736,11.736,0,0,1-13.242-3.862c-4.244-5.31-3.73-14.474.993-19.356,3.425-3.54,10.632-5.243,15.688-.919.959-.678.124-3.408,2.721-2.321Z" transform="translate(-171.214 -0.387)"/>
      <path id="Path_341475" data-name="Path 341475" d="M485.909,2.209v11.2a36.189,36.189,0,0,0,4.4-.056,2.439,2.439,0,0,0,1.67-1.2c.482-1.107,1.132-1.32,2.249-.95v6.578c-.876.132-1.635.438-2.049-.824a2.139,2.139,0,0,0-1.566-1.047,43.6,43.6,0,0,0-4.448-.049v9.613l2.117.2c.028.586.056,1.174.09,1.887h-8.794V25.713l2.5-.248V2.674l-2.553-.233C479.4,1.651,479.29.883,479.16,0h21.033V5.218c-1.2.524-1.9.121-2.3-1.106a2.668,2.668,0,0,0-2.919-1.921c-2.988.061-5.978.018-9.066.018" transform="translate(-312.886 0)"/>
      <path id="Path_341476" data-name="Path 341476" d="M200.943,3.291V26.2l2.242.215v1.9h-8.509V26.418l2.246-.182V3.338c-1.972,0-3.97-.089-5.949.066-.464.036-.969.842-1.26,1.4a8.61,8.61,0,0,0-.489,1.953l-1.738.1V1.132h22.586V6.406c-1.235.456-1.808.108-1.906-1.161a1.927,1.927,0,0,0-2.3-1.97c-1.6.074-3.206.017-4.924.017" transform="translate(-122.425 -0.739)"/>
      <path id="Path_341477" data-name="Path 341477" d="M78.826,26.235l2.3.193v1.886H72.411v-1.87l2.317-.241V3.338c-1.951,0-3.9-.088-5.833.061-.49.038-1.058.759-1.344,1.3a8.4,8.4,0,0,0-.5,2.059H65.378V1.143H87.924c0,1.573.08,3.168-.064,4.742-.031.337-.87.6-1.489.995-.215-.925-.354-1.417-.44-1.918A1.765,1.765,0,0,0,83.907,3.3c-1.657.046-3.316.011-5.081.011Z" transform="translate(-42.691 -0.746)"/>
      <path id="Path_341478" data-name="Path 341478" d="M155.053,26.613V28.5h-8.779c-.03-.6-.057-1.155-.092-1.851l2.373-.267V3.614l-2.28-.276c-.027-.608-.054-1.21-.086-1.932h8.821V3.354l-2.295.219V26.367l2.338.246" transform="translate(-95.455 -0.919)"/>
      <path id="Path_341479" data-name="Path 341479" d="M562.922,26.4V28.3h-8.639V26.383l2.211-.167V3.364l-2.235-.2c-.031-.621-.06-1.221-.1-2.063,2.752,0,5.391-.032,8.025.045.29.008.773.634.785.985A1.431,1.431,0,0,1,562.25,3.2a5.072,5.072,0,0,1-1.66.157v22.8l2.332.255" transform="translate(-361.858 -0.712)"/>
    </g>
  </g>
</svg>
