<svg xmlns="http://www.w3.org/2000/svg" xmlns:xlink="http://www.w3.org/1999/xlink" width="170" height="31" viewBox="0 0 170 31">
  <defs>
    <clipPath id="clip-path">
      <rect id="Rectangle_24846" data-name="Rectangle 24846" width="170" height="31" transform="translate(-0.155 -0.141)" fill="none"/>
    </clipPath>
  </defs>
  <g id="Group_346464" data-name="Group 346464" transform="translate(0.155 0.141)">
    <g id="Group_346463" data-name="Group 346463" transform="translate(0 0)" clip-path="url(#clip-path)">
      <path id="Path_341456" data-name="Path 341456" d="M233.033,31.356V2.243c.47-.04.859-.1,1.249-.1,7.052.005,14.112-.16,21.153.115a26.732,26.732,0,0,1,8.7,1.879c5.783,2.313,9.092,6.626,9.053,12.867-.038,6.159-3.487,10.228-9.185,12.369a29.847,29.847,0,0,1-9.048,1.957c-6.982.3-13.984.125-20.979.137a8.918,8.918,0,0,1-.948-.108m5.09-24.474V26.593c5.818,0,11.521.115,17.217-.046a16.879,16.879,0,0,0,8.676-2.52c5.337-3.391,5.71-10.312.612-14.027a15.559,15.559,0,0,0-5.267-2.368,29.232,29.232,0,0,0-6.5-.719c-4.887-.1-9.778-.031-14.739-.031" transform="translate(-152.207 -1.391)"/>
      <path id="Path_341457" data-name="Path 341457" d="M386.783,30.756a26.9,26.9,0,0,1-11.93-2.466c-4.467-2.12-7.726-5.331-8.746-10.193-1.178-5.615.967-10.1,5.475-13.594A22.461,22.461,0,0,1,383.6.231c4.975-.456,9.992-.386,14.643,1.605a23.31,23.31,0,0,1,6.787,4.18c6.364,6.006,5.288,15.544-2.138,20.667-4.613,3.182-9.9,4.1-16.106,4.072m-.3-4.768c5.527,0,9.545-.92,12.46-2.636,6.973-4.1,7.012-12.1-.16-15.859a26.181,26.181,0,0,0-8.7-2.469,22.021,22.021,0,0,0-14.207,2.549c-2.973,1.736-4.983,4.187-5,7.738-.016,4.228,2.567,6.8,6.161,8.591a22.536,22.536,0,0,0,9.437,2.087" transform="translate(-238.917 0)"/>
      <path id="Path_341458" data-name="Path 341458" d="M0,30.373,19.8.44,39.55,30.353c-1.892,0-3.521.057-5.14-.042-.393-.024-.84-.505-1.11-.88-1.222-1.7-2.324-3.482-3.613-5.128a2.846,2.846,0,0,0-1.915-1q-8.063-.119-16.128,0a2.832,2.832,0,0,0-1.872,1.045,44.981,44.981,0,0,0-3.244,4.759,2.36,2.36,0,0,1-2.507,1.28c-1.2-.089-2.423-.02-4.021-.02M19.776,9.058l-6.241,9.327H25.926l-6.15-9.327" transform="translate(0 -0.292)"/>
      <path id="Path_341459" data-name="Path 341459" d="M133.023,27.037h24.933v4.641H128.081V2.55h4.941Z" transform="translate(-83.657 -1.693)"/>
    </g>
  </g>
</svg>
