<svg xmlns="http://www.w3.org/2000/svg" xmlns:xlink="http://www.w3.org/1999/xlink" width="148" height="34" viewBox="0 0 148 34">
  <defs>
    <clipPath id="clip-path">
      <rect id="Rectangle_24849" data-name="Rectangle 24849" width="148" height="34" transform="translate(0 0.472)" fill="none"/>
    </clipPath>
  </defs>
  <g id="Group_346473" data-name="Group 346473" transform="translate(0 -0.472)">
    <g id="Group_346472" data-name="Group 346472" transform="translate(0 0)" clip-path="url(#clip-path)">
      <path id="Path_341460" data-name="Path 341460" d="M100.679,0h6.3V33.654h-6.159c-.063-.392-.131-.821-.193-1.211-9.536,3.981-16.673,1.725-20.011-8.277C78.987,19.3,80.8,14.6,84.918,11.3c4.85-3.886,10.151-3.913,15.761-1.057Zm.027,21.159a7.135,7.135,0,0,0-7.151-7.073,7.436,7.436,0,0,0-7.371,7.341,7.593,7.593,0,0,0,7.626,6.947,7.326,7.326,0,0,0,6.9-7.215" transform="translate(-51.494 0)"/>
      <path id="Path_341461" data-name="Path 341461" d="M209,10.329V.113h5.985V33.705h-5.928l-.218-1.143c-9.629,3.876-16.791,1.676-19.931-8.6-1.479-4.839.309-9.393,4.405-12.675C198.181,7.4,203.4,7.662,209,10.329M194.616,21.186a7.258,7.258,0,0,0,6.868,7.245,7.428,7.428,0,0,0,7.463-6.88,7.3,7.3,0,0,0-7.107-7.391,7.191,7.191,0,0,0-7.224,7.026" transform="translate(-121.237 -0.073)"/>
      <path id="Path_341462" data-name="Path 341462" d="M289.241,25.143c.064-.575.117-1.04.181-1.613h6.148V48.589h-6.126L289.2,47.32c-7.641,3.1-13.673,1.964-17.581-3.247a13.016,13.016,0,0,1,.111-15.968c3.323-4.139,10.1-6.988,17.51-2.962m.078,10.942a7.43,7.43,0,0,0-6.945-7.194,7.684,7.684,0,0,0-7.312,7.286,7.5,7.5,0,0,0,7.4,7.117,7.28,7.28,0,0,0,6.857-7.209" transform="translate(-173.065 -14.933)"/>
      <path id="Path_341463" data-name="Path 341463" d="M20.5,25.339l.25-1.834h5.9V48.668H20.792l-.357-1.316c-8.252,3.176-14.243,1.964-18.124-3.593a13.2,13.2,0,0,1,.932-16.121c4.1-4.708,10.784-5.657,17.261-2.3M6.076,36.283a7.3,7.3,0,0,0,7.173,7.1A7.607,7.607,0,0,0,20.6,36.337c.046-3.765-3.582-7.322-7.485-7.34a7.437,7.437,0,0,0-7.044,7.286" transform="translate(0 -15.023)"/>
      <path id="Path_341464" data-name="Path 341464" d="M350.608,40.586h6.329a5.22,5.22,0,0,0,7.58,3.28,3.42,3.42,0,0,0,1.713-2.346c.04-.575-1.161-1.578-1.97-1.8-2.437-.68-4.991-.942-7.433-1.61-3.946-1.079-5.67-3.273-5.705-6.859a7.55,7.55,0,0,1,5.582-7.369,14.878,14.878,0,0,1,9.874.2,8.436,8.436,0,0,1,5.565,7.109h-6.11c-1.257-3.02-3.962-4.149-6.987-2.759a2.622,2.622,0,0,0-1.431,1.742,2.3,2.3,0,0,0,1.34,1.731c2.024.62,4.131.969,6.207,1.418.753.163,1.523.263,2.257.483,3.547,1.065,5.643,3.471,5.8,6.6a7.661,7.661,0,0,1-5.065,7.608c-4.9,2-9.709,1.876-14.232-1.069a7.17,7.17,0,0,1-3.314-6.357" transform="translate(-225.619 -14.889)"/>
      <rect id="Rectangle_24847" data-name="Rectangle 24847" width="5.972" height="25.115" transform="translate(58.702 8.599)"/>
      <rect id="Rectangle_24848" data-name="Rectangle 24848" width="5.984" height="6.115" transform="translate(58.696 0.108)"/>
    </g>
  </g>
</svg>
