<svg id="crown" xmlns="http://www.w3.org/2000/svg" width="28" height="28" viewBox="0 0 28 28">
  <path id="Vector" d="M0,13.513V2.336C0,.785.9.411,2,1.508L5.017,4.53a1.162,1.162,0,0,0,1.645,0L10.838.341a1.162,1.162,0,0,1,1.645,0L16.672,4.53a1.162,1.162,0,0,0,1.645,0l3.022-3.022c1.1-1.1,1.995-.723,1.995.828V13.525A5.511,5.511,0,0,1,17.5,19.358H5.833A5.853,5.853,0,0,1,0,13.513Z" transform="translate(2.333 4.325)" fill="none" stroke="#fff" stroke-linecap="round" stroke-linejoin="round" stroke-width="1.5"/>
  <path id="Vector-2" data-name="Vector" d="M0,0H28V28H0Z" fill="none" opacity="0"/>
</svg>
