<svg xmlns="http://www.w3.org/2000/svg" width="18" height="17.999" viewBox="0 0 18 17.999">
  <path id="curve-arrow" d="M12.942.5a1.405,1.405,0,0,1,.994.413L17.38,4.349a2.11,2.11,0,0,1,0,2.988l-3.444,3.437a1.409,1.409,0,0,1-2.4-1V6.546A10.137,10.137,0,0,0,1.406,16.671V17.8A.7.7,0,0,1,0,17.8V16.671A11.531,11.531,0,0,1,11.531,5.14a1.408,1.408,0,0,1,1.406,1.406V9.778h0l0,0,0,0,3.444-3.437a.7.7,0,0,0,0-1L12.943,1.907l0,0h0v.771a.7.7,0,0,1-1.406,0V1.908A1.411,1.411,0,0,1,12.942.5Zm0,0" transform="translate(0 -0.5)" fill="#fff"/>
</svg>
