<svg id="gps" xmlns="http://www.w3.org/2000/svg" width="28" height="28" viewBox="0 0 28 28">
  <path id="Vector" d="M17.5,8.75A8.75,8.75,0,1,1,8.75,0,8.75,8.75,0,0,1,17.5,8.75Z" transform="translate(5.25 5.25)" fill="none" stroke="#c9952b" stroke-linecap="round" stroke-linejoin="round" stroke-width="1.5"/>
  <path id="Vector-2" data-name="Vector" d="M7,3.5A3.5,3.5,0,1,1,3.5,0,3.5,3.5,0,0,1,7,3.5Z" transform="translate(10.5 10.5)" fill="none" stroke="#c9952b" stroke-linecap="round" stroke-linejoin="round" stroke-width="1.5"/>
  <path id="Vector-3" data-name="Vector" d="M0,2.333V0" transform="translate(14 2.333)" fill="none" stroke="#c9952b" stroke-linecap="round" stroke-linejoin="round" stroke-width="1.5"/>
  <path id="Vector-4" data-name="Vector" d="M2.333,0H0" transform="translate(2.333 14)" fill="none" stroke="#c9952b" stroke-linecap="round" stroke-linejoin="round" stroke-width="1.5"/>
  <path id="Vector-5" data-name="Vector" d="M0,0V2.333" transform="translate(14 23.333)" fill="none" stroke="#c9952b" stroke-linecap="round" stroke-linejoin="round" stroke-width="1.5"/>
  <path id="Vector-6" data-name="Vector" d="M0,0H2.333" transform="translate(23.333 14)" fill="none" stroke="#c9952b" stroke-linecap="round" stroke-linejoin="round" stroke-width="1.5"/>
  <path id="Vector-7" data-name="Vector" d="M0,0H28V28H0Z" transform="translate(28 28) rotate(180)" fill="none" opacity="0"/>
</svg>
