<svg xmlns="http://www.w3.org/2000/svg" width="18" height="18" viewBox="0 0 18 18">
  <g id="vuesax_linear_location" data-name="vuesax/linear/location" transform="translate(0 0)">
    <g id="location" transform="translate(0 0)">
      <path id="Vector" d="M4.68,2.34A2.34,2.34,0,1,1,2.34,0,2.34,2.34,0,0,1,4.68,2.34Z" transform="translate(6.66 5.393)" fill="none" stroke="#fff" stroke-width="1.5"/>
      <path id="Vector-2" data-name="Vector" d="M.182,4.868c1.477-6.495,11.1-6.487,12.57.008.862,3.81-1.507,7.035-3.585,9.03a3.9,3.9,0,0,1-5.408,0C1.69,11.91-.68,8.677.182,4.868Z" transform="translate(2.533 1.5)" fill="none" stroke="#fff" stroke-width="1.5"/>
      <path id="Vector-3" data-name="Vector" d="M0,0H18V18H0Z" transform="translate(18 18) rotate(180)" fill="none" opacity="0"/>
    </g>
  </g>
</svg>
