<svg id="Group_339333" data-name="Group 339333" xmlns="http://www.w3.org/2000/svg" xmlns:xlink="http://www.w3.org/1999/xlink" width="190.981" height="154.503" viewBox="0 0 190.981 154.503">
  <defs>
    <clipPath id="clip-path">
      <rect id="Rectangle_1997" data-name="Rectangle 1997" width="190.981" height="154.503" fill="none"/>
    </clipPath>
    <clipPath id="clip-path-2">
      <path id="Path_340874" data-name="Path 340874" d="M133.968,97.242v2.281h13.753l6.565,6.564H133.968v3.8h27.345l-1.826-1.826-1.975-1.975-8.846-8.845Zm-82.907-.5v2.281h1.747l2.28-2.281ZM105.5,94.473l15.415,15.416h13.058v-3.8H122.485l-8.833-8.832h8.417l2.268,2.268h9.631V97.242h-8.685l-2.268-2.269H111.371L105.5,89.1ZM123.8,88h-3.226l2.281,2.281,4.114,4.115h3.194v-.034l-4.083-4.082h7.889V88ZM46.024,92.468h3.226l1.81-1.81V87.431Zm6.883-6.883-1.847,1.847v3.226L56.1,85.621l-.035-.036Zm81.06.448L135.937,88h-1.969v2.281h7.476l-7.476-7.475Zm-37.334-.421,8.861,8.861V89.1l-8.861-8.86Zm-44.7-5.471-.876.877v3.225l1.821-1.821h7.17l2.281-2.281ZM105.5,74.334v2.281h1.281l2.8,2.8H112.8l-5.081-5.081Zm28.473,2.455,16.053,16.053H135.427l2.281,2.28H152.3l8.758,8.758,2.207,2.207,3.8,3.8h5.375L133.968,71.415ZM95.985,71.352H82.747l-2.281,2.281H96.634V71.352Zm2.6,0H96.634v2.281h1.632l2.982,2.982H105.5V74.334h-3.3l-2.982-2.982ZM11.021,109.889h40.04v-5.353l-1.553,1.551H39.6l7.067-7.068h4.4V96.738H45.72l-9.348,9.349H20.2l6-6h9.018L51.061,84.243V81.018L34.273,97.8H28.482L51.061,75.226V69.849ZM105.5,65.844v2.281h1.086l14.47,14.47h-13.64l8.857,8.857H119.5l-6.577-6.576h13.64L107.525,65.844Zm-8.861,2.281H105.5V65.844l-8.861,0ZM69.369,75.793H56.257l-2.28,2.281H67.088L51.614,93.549H62.048L51.061,104.536v5.353H62.555L91.733,80.711l4.9,4.9V80.237l-4.9-4.9-2.547,2.547H75.39L64.982,88.288h3.226l8.128-8.125h10.57L60.98,106.087H52.735L67.554,91.268H57.121L80.278,68.109h2.315v.016H96.634V65.84q-8.653-.008-17.3-.012ZM96.634,62.688H105.5V60.407H96.634Zm8.861-2.281v2.281h5.128l23.345,23.345V82.808l-22.4-22.4Zm-9.546-3.224h.685V56.5Zm7.4-7.4L96.634,56.5v.685H105.5V54.9h-4.042l2.843-2.843h1.2V49.778Zm-6.717-2.638v4.613l4.613-4.613ZM105.5,43v2.281h1.761L109.537,43Zm-14,2.281h5.139V40.138Zm12.053-3.9H105.5v-1.94Zm-2.218-5.931-4.7,4.7v5.139H105.5V43H97l7.554-7.554Zm-50.269,4.6,14.9,14.9-14.9,14.9v5.377l20.28-20.282-20.28-20.28ZM112.167,54.9H105.5v2.281h8.867L133.968,76.79V71.415L117.5,54.944l16.47-16.47V33.1ZM96.634,31.947H105.5V29.666H96.634ZM51.061,28.474,72.008,49.422H95.741l-3.2,3.2H84.431l-5.151,5.151H74.816L59.588,73h9.432l2.281-2.28H65.093L75.762,60.05h4.463L85.375,54.9h4.889l-5.51,5.509-.813.811v1.47H96.634V60.407H87.981l8.653-8.653V47.141H72.954L51.061,25.248Zm61.264-3.89-5.082,5.082H105.5v2.281h2.691l7.363-7.363Zm19.5,1.691H125.06l-2.28,2.281h9.99l1.2-1.2V24.132ZM41.19,18.6l9.871,9.871V25.248L46.7,20.883h4.365V18.6Zm9.871,0v2.28H58.6L56.32,18.6Zm78.918,3.1H133.2l.764-.764V17.717Zm5.845-5.845-1.856,1.855v3.226l5.081-5.081Zm-39.19,8.413v5.376l7.92-7.92h.941V15.416Zm34.231-13.467-2.28,2.281h5.383V10.808Zm-79.8-.5v2.281h7.232L70.659,24.951H57.019L76.05,43.984H92.086L79.01,30.908H72.742l2.281,2.28h3.041L86.581,41.7H77l-14.47-14.47h13.64L59.238,10.305ZM11.021,0l40.04,40.039V34.664L22.292,5.894,20.2,3.8,16.4,0Zm11.3,0L24.09,1.766l1.659,1.659,8.494,8.494.668.668H51.061V10.305H35.856L29.351,3.8h21.71V0ZM51.061,0V3.8H60.98L91.733,34.554l2.607-2.607h2.294V29.666h-.013l.013-.015V24.276l-4.9,4.9L62.555,0ZM120.91,0,105.5,15.416v6.316h5.249l2.281-2.281h-6.191L122.485,3.8h8.3l-14.76,14.76h10.426L105.5,39.433v1.94H116.22l-8.407,8.405H105.5v2.281h3.264l12.967-12.967H109.069l5.942-5.919h12l2.28-2.281H117.3L131.97,16.281H121.528l12.44-12.44V0Zm13.058,0V3.841l.04-.039h9.911l-7.009,7.007h-2.942v2.281h3.887L147.145,3.8h16.123l-5.942,5.942h-8.967l-14.39,14.389v3.225L149.3,12.025h5.741L133.968,33.1v5.376L172.443,0Z" transform="translate(-11.021)" fill="none"/>
    </clipPath>
    <linearGradient id="linear-gradient" x1="-0.024" y1="1.01" x2="-0.017" y2="1.01" gradientUnits="objectBoundingBox">
      <stop offset="0" stop-color="#c9952b"/>
      <stop offset="0.13" stop-color="#f4c870"/>
      <stop offset="0.29" stop-color="#b9822c"/>
      <stop offset="0.46" stop-color="#f4c870"/>
      <stop offset="0.63" stop-color="#c9952b"/>
      <stop offset="0.78" stop-color="#f4c870"/>
      <stop offset="1" stop-color="#c9952b"/>
    </linearGradient>
  </defs>
  <g id="Group_339204" data-name="Group 339204" transform="translate(0 0)">
    <g id="Group_339203" data-name="Group 339203" clip-path="url(#clip-path)">
      <path id="Path_340868" data-name="Path 340868" d="M52.326,112.481a5.172,5.172,0,0,0,5.164-5.2v-7.013A5.164,5.164,0,0,0,52.326,95.1H31.093v4.585H51.478a1.159,1.159,0,0,1,1.156,1.156v5.9a1.152,1.152,0,0,1-1.156,1.118H31.093v14.22h4.895v-9.6H44.85l8.054,9.6h5.742l-8.054-9.6Z" transform="translate(10.602 32.427)" fill-rule="evenodd"/>
      <path id="Path_340869" data-name="Path 340869" d="M83.9,116.334a1.159,1.159,0,0,1-1.156,1.156H68.371a1.128,1.128,0,0,1-1.118-1.156V95.1H62.359v21.811a5.165,5.165,0,0,0,5.164,5.164H83.592a5.165,5.165,0,0,0,5.164-5.164V95.1H83.9Z" transform="translate(21.263 32.427)" fill-rule="evenodd"/>
      <path id="Path_340870" data-name="Path 340870" d="M113.9,95.1H93.826v4.585h19.228a1.159,1.159,0,0,1,1.156,1.156v5.9a1.152,1.152,0,0,1-1.156,1.117H93.826v14.22h4.893v-9.6H113.9a5.172,5.172,0,0,0,5.164-5.2v-7.013A5.164,5.164,0,0,0,113.9,95.1" transform="translate(31.992 32.427)" fill-rule="evenodd"/>
      <path id="Path_340871" data-name="Path 340871" d="M146.163,95.1h-5.857l-10.559,13.14,11.137,13.835h5.857L135.6,108.241Z" transform="translate(44.24 32.427)" fill-rule="evenodd"/>
      <path id="Path_340872" data-name="Path 340872" d="M121.471,122.076h5.857l5.24-6.527L129.64,111.9Zm11.1-21.153L127.906,95.1h-5.857l7.591,9.479Z" transform="translate(41.418 32.427)" fill="#c93" fill-rule="evenodd"/>
      <path id="Path_340873" data-name="Path 340873" d="M12.332,110.9h9.21v5.434a1.159,1.159,0,0,1-1.156,1.156H6.012a1.127,1.127,0,0,1-1.117-1.156V100.842a1.127,1.127,0,0,1,1.117-1.156h19.23V95.1H5.164A5.164,5.164,0,0,0,0,100.264v16.648a5.165,5.165,0,0,0,5.164,5.164H21.233a5.165,5.165,0,0,0,5.164-5.164V106.277H12.332Z" transform="translate(0 32.427)" fill-rule="evenodd"/>
    </g>
  </g>
  <g id="Group_339206" data-name="Group 339206" transform="translate(14.779)">
    <g id="Group_339205" data-name="Group 339205" clip-path="url(#clip-path-2)">
      <rect id="Rectangle_1998" data-name="Rectangle 1998" width="182.252" height="195.27" transform="translate(-51.438 74.257) rotate(-55.289)" fill="url(#linear-gradient)"/>
    </g>
  </g>
</svg>
