<svg id="message-favorite" xmlns="http://www.w3.org/2000/svg" width="26" height="26" viewBox="0 0 26 26">
  <path id="Vector" d="M21.667,6.5v5.417q0,6.5-6.5,6.5h-.542a1.1,1.1,0,0,0-.867.433l-1.625,2.167a1.539,1.539,0,0,1-2.6,0L7.908,18.85a1.224,1.224,0,0,0-.867-.433H6.5c-4.333,0-6.5-1.083-6.5-6.5V6.5Q0,0,6.5,0h4.333" transform="translate(2.167 2.167)" fill="none" stroke="#c9952b" stroke-linecap="round" stroke-linejoin="round" stroke-width="1.5"/>
  <path id="Vector-2" data-name="Vector" d="M.123,2.84A2.13,2.13,0,0,1,1.358.078a1.66,1.66,0,0,1,1.8.542,1.614,1.614,0,0,1,1.8-.542A2.126,2.126,0,0,1,6.19,2.84,4.182,4.182,0,0,1,3.157,5.418,4.192,4.192,0,0,1,.123,2.84Z" transform="translate(16.343 2.165)" fill="none" stroke="#c9952b" stroke-linecap="round" stroke-linejoin="round" stroke-width="1.5"/>
  <path id="Vector-3" data-name="Vector" d="M.495.5H.5" transform="translate(16.835 11.417)" fill="none" stroke="#c9952b" stroke-linecap="round" stroke-linejoin="round" stroke-width="2"/>
  <path id="Vector-4" data-name="Vector" d="M.495.5H.5" transform="translate(12.501 11.417)" fill="none" stroke="#c9952b" stroke-linecap="round" stroke-linejoin="round" stroke-width="2"/>
  <path id="Vector-5" data-name="Vector" d="M.495.5H.5" transform="translate(8.166 11.417)" fill="none" stroke="#c9952b" stroke-linecap="round" stroke-linejoin="round" stroke-width="2"/>
  <path id="Vector-6" data-name="Vector" d="M0,0H26V26H0Z" fill="none" opacity="0"/>
</svg>
