<svg id="microphone" xmlns="http://www.w3.org/2000/svg" width="20" height="20.184" viewBox="0 0 20 20.184">
  <path id="Vector" d="M4.9,14.83A5.08,5.08,0,0,0,9.8,9.6V5.234A5.08,5.08,0,0,0,4.9,0,5.08,5.08,0,0,0,0,5.234V9.6A5.08,5.08,0,0,0,4.9,14.83Z" transform="translate(5.098 1.745)" fill="none" stroke="#584cd7" stroke-linecap="round" stroke-linejoin="round" stroke-width="1"/>
  <path id="Vector-2" data-name="Vector" d="M0,0V1.745A7.629,7.629,0,0,0,7.383,9.6a7.629,7.629,0,0,0,7.383-7.851V0" transform="translate(2.617 10.088)" fill="none" stroke="#584cd7" stroke-linecap="round" stroke-linejoin="round" stroke-width="1"/>
  <path id="Vector-3" data-name="Vector" d="M0,.425a6.979,6.979,0,0,1,4.8,0" transform="translate(7.486 5.821)" fill="none" stroke="#584cd7" stroke-linecap="round" stroke-linejoin="round" stroke-width="1"/>
  <path id="Vector-4" data-name="Vector" d="M0,.216a6.042,6.042,0,0,1,3.2,0" transform="translate(8.288 8.523)" fill="none" stroke="#584cd7" stroke-linecap="round" stroke-linejoin="round" stroke-width="1"/>
  <path id="Vector-5" data-name="Vector" d="M0,0H20V20H0Z" fill="none" opacity="0"/>
</svg>
