<svg version="1.2" xmlns="http://www.w3.org/2000/svg" viewBox="0 0 22 24" width="22" height="24">
	<title>Group 346449-svg</title>
	<defs>
		<clipPath clipPathUnits="userSpaceOnUse" id="cp1">
			<path d="m-2-1h26v26h-26z"/>
		</clipPath>
	</defs>
	<style>
		.s0 { fill: none;stroke: #c9952b;stroke-linecap: round;stroke-width: 1.5 } 
		.s1 { fill: none;stroke: #c9952b;stroke-width: 1.5 } 
		.s2 { fill: none;stroke: #c9952b;stroke-linecap: round;stroke-linejoin: round;stroke-width: 1.5 } 
	</style>
	<g id="Group_346449">
		<g id="vuesax_linear_notification-bing">
			<g id="Clip-Path: Group_346440" clip-path="url(#cp1)">
				<g id="Group_346440">
					<path id="Path_341453" fill-rule="evenodd" class="s0" d="m14.2 1.7q-0.4-0.1-0.8-0.2-0.3-0.2-0.8-0.2-0.4-0.1-0.8-0.1-0.4-0.1-0.8 0-1.4 0-2.7 0.5-1.4 0.6-2.4 1.6-1 1-1.5 2.3-0.6 1.3-0.6 2.8v2.3q0 0.3-0.1 0.6 0 0.3-0.1 0.6-0.1 0.3-0.2 0.6-0.1 0.3-0.3 0.6l-1.4 2.3q-0.3 0.5-0.3 1-0.1 0.6 0.1 1.1 0.2 0.5 0.6 0.9 0.4 0.4 0.9 0.5 2 0.7 4 1 2 0.3 4 0.3 2.1 0 4.1-0.3 2-0.3 3.9-1 0.5-0.1 0.9-0.5 0.4-0.4 0.6-0.9 0.2-0.5 0.1-1.1 0-0.5-0.3-1l-1-1.7"/>
					<path id="Path_341454" fill-rule="evenodd" class="s1" d="m14.6 19.4c0 0.9-0.4 1.8-1.1 2.5-0.6 0.7-1.6 1-2.5 1-0.9 0-1.9-0.3-2.5-1-0.7-0.7-1.1-1.6-1.1-2.5"/>
					<path id="Path_341455" fill-rule="evenodd" class="s2" d="m14.4 7.5q-0.2-0.4-0.1-0.8 0-0.4 0.1-0.8 0.2-0.4 0.5-0.7 0.3-0.3 0.7-0.4 0.3-0.1 0.5-0.1 0.3 0 0.5 0 0.3 0.1 0.5 0.3 0.2 0.1 0.3 0.3 0.2-0.2 0.4-0.3 0.2-0.2 0.4-0.3 0.3 0 0.5 0 0.3 0 0.5 0.1 0.4 0.1 0.7 0.4 0.3 0.3 0.5 0.7 0.2 0.4 0.2 0.8 0 0.4-0.1 0.8-0.2 0.5-0.5 0.9-0.3 0.5-0.7 0.8-0.4 0.3-0.9 0.6-0.5 0.2-1 0.3-0.5-0.1-0.9-0.3-0.5-0.3-0.9-0.6-0.4-0.3-0.7-0.8-0.3-0.4-0.5-0.9z"/>
				</g>
			</g>
		</g>
	</g>
</svg>