<svg xmlns="http://www.w3.org/2000/svg" width="31" height="31" viewBox="0 0 31 31">
  <path id="Path_341451" data-name="Path 341451" d="M369.9,32.443h-4.094V29.07H376.16V39.388h-3.334V35.263l-5.123,5.31a13.094,13.094,0,0,1,2.15,5.844,12.381,12.381,0,0,1-24.542,3.209c-.711-5.187,1.084-9.412,5.468-12.273,4.344-2.835,8.9-2.737,13.359-.11a1.067,1.067,0,0,0,1.6-.188c1.408-1.454,2.875-2.852,4.319-4.272l-.156-.341m-12.369,24.1a8.877,8.877,0,1,0-8.9-8.776,8.86,8.86,0,0,0,8.9,8.776" transform="translate(-345.16 -29.07)" fill="#c9952b"/>
</svg>
